<svg width="131" height="131" viewBox="0 0 131 131" fill="none" xmlns="http://www.w3.org/2000/svg">
<g clip-path="url(#clip0_38_48)">
<mask id="mask0_38_48" style="mask-type:alpha" maskUnits="userSpaceOnUse" x="-121" y="0" width="466" height="142">
<rect x="-120.096" y="0.00488281" width="465" height="141.432" fill="#D9D9D9"/>
</mask>
<g mask="url(#mask0_38_48)">
<line y1="-0.5" x2="162.443" y2="-0.5" transform="matrix(0.560199 0.828358 -0.587067 0.809539 -86.644 1.30615)" stroke="white" stroke-opacity="0.5"/>
<line y1="-0.5" x2="162.443" y2="-0.5" transform="matrix(0.560199 0.828358 -0.587067 0.809539 -66.6436 1.30615)" stroke="white" stroke-opacity="0.5"/>
<line y1="-0.5" x2="162.443" y2="-0.5" transform="matrix(0.560199 0.828358 -0.587067 0.809539 -46.6436 1.30615)" stroke="white" stroke-opacity="0.5"/>
<line y1="-0.5" x2="162.443" y2="-0.5" transform="matrix(0.560199 0.828358 -0.587067 0.809539 -26.6431 1.30615)" stroke="white" stroke-opacity="0.5"/>
<line y1="-0.5" x2="162.443" y2="-0.5" transform="matrix(0.560199 0.828358 -0.587067 0.809539 -6.64307 1.30615)" stroke="white" stroke-opacity="0.5"/>
<line y1="-0.5" x2="162.443" y2="-0.5" transform="matrix(0.560199 0.828358 -0.587067 0.809539 13.3574 1.30615)" stroke="white" stroke-opacity="0.5"/>
<line y1="-0.5" x2="162.443" y2="-0.5" transform="matrix(0.560199 0.828358 -0.587067 0.809539 33.3574 1.30615)" stroke="white" stroke-opacity="0.5"/>
<line y1="-0.5" x2="162.443" y2="-0.5" transform="matrix(0.560199 0.828358 -0.587067 0.809539 53.3579 1.30615)" stroke="white" stroke-opacity="0.5"/>
<line y1="-0.5" x2="162.443" y2="-0.5" transform="matrix(0.560199 0.828358 -0.587067 0.809539 73.3579 1.30615)" stroke="white" stroke-opacity="0.5"/>
<line y1="-0.5" x2="162.443" y2="-0.5" transform="matrix(0.560199 0.828358 -0.587067 0.809539 93.3584 1.30615)" stroke="white" stroke-opacity="0.5"/>
<line y1="-0.5" x2="162.443" y2="-0.5" transform="matrix(0.560199 0.828358 -0.587067 0.809539 113.358 1.30615)" stroke="white" stroke-opacity="0.5"/>
</g>
</g>
<defs>
<clipPath id="clip0_38_48">
<rect x="0.354492" y="0.00488281" width="130" height="130" rx="65" fill="white"/>
</clipPath>
</defs>
</svg>
