<svg width="916" height="709" viewBox="0 0 916 709" fill="none" xmlns="http://www.w3.org/2000/svg">
<g clip-path="url(#clip0_50_81)">
<rect width="706.42" height="687.65" transform="translate(261.192 -195) rotate(22.2361)" fill="black"/>
<path fill-rule="evenodd" clip-rule="evenodd" d="M792.467 251.872C792.466 251.557 792.464 251.242 792.462 250.927C792.46 250.716 792.458 250.506 792.456 250.295C791.986 239.041 783.243 229.97 774.757 223.519C760.219 212.465 742.711 205.373 725.568 199.477C713.326 195.272 700.865 191.725 688.285 188.655C692.49 218.845 693.776 249.449 692.286 279.881C691.709 291.651 690.703 303.403 689.257 315.1C703.521 311.398 717.626 307.085 731.389 301.853C747.109 295.877 763.074 288.749 776.228 278.084C784.221 271.608 792.166 262.709 792.467 251.872ZM792.343 262.625C791.966 263.461 791.546 264.29 791.083 265.11C784.517 276.73 772.507 284.729 761.127 291.053C743.366 300.937 723.911 307.752 704.46 313.444C699.304 314.954 694.124 316.381 688.924 317.731C685.91 341.032 681.145 364.104 674.549 386.66C665.261 418.417 652.275 449.148 635.191 477.513C619.76 503.128 600.856 526.827 578.296 546.546C557.608 564.621 533.718 579.27 507.596 588.015C503.146 589.505 498.642 590.818 494.097 591.952C520.363 588.586 546.229 582.202 571.023 572.872C603.275 560.734 633.614 543.709 660.796 522.541C687.737 501.566 711.49 476.576 731.08 448.61C750.848 420.392 766.286 389.183 776.693 356.328C786.299 326.007 791.487 294.395 792.343 262.625ZM411.52 592.61C393.462 588.362 376.099 581.315 359.995 572.064C336.996 558.847 316.652 541.358 299.124 521.498C279.732 499.537 263.769 474.634 250.873 448.36C236.804 419.694 226.402 389.275 219.271 358.174C216.483 346.006 214.208 333.732 212.425 321.389C193.444 316.829 174.634 311.269 156.64 303.745C141.764 297.534 126.198 289.841 115.095 277.837C112.244 274.753 109.821 271.293 108.115 267.58C108.327 272.834 108.661 278.083 109.115 283.322C112.161 318.522 120.709 353.185 134.44 385.742C147.795 417.422 165.999 446.99 188.183 473.247C210.169 499.273 236.052 521.976 264.694 540.416C293.859 559.189 325.877 573.467 359.328 582.627C376.427 587.312 393.896 590.639 411.52 592.61ZM107.951 244.772C108.553 221.606 111.498 198.504 116.772 175.933C124.697 142.042 137.935 109.372 155.797 79.4997C173.321 50.1916 195.253 23.528 220.62 0.667526C246.114 -22.2922 275.034 -41.421 306.181 -55.8253C337.918 -70.5037 371.862 -80.2299 406.552 -84.6265C381.849 -78.4574 358.683 -67.0023 338.124 -52.0139C314.51 -34.7892 294.334 -13.0797 277.564 10.7893C258.994 37.239 244.455 66.4601 233.543 96.8508C222.768 126.843 215.478 158.059 211.394 189.662C200.819 192.402 190.333 195.471 179.99 198.959C162.484 204.863 144.899 211.913 129.496 222.264C121.071 227.925 112.241 235.261 107.951 244.772ZM488.563 -85.2552C512.821 -79.5901 535.661 -68.8608 556.088 -54.6686C578.385 -39.1792 597.795 -19.6949 614.274 1.83207C632.406 25.5258 647.084 51.8042 658.649 79.2735C671.346 109.442 680.326 141.148 685.901 173.385C686.628 177.582 687.296 181.789 687.908 186.004C690.216 186.569 692.521 187.147 694.823 187.739C716.074 193.208 737.357 199.813 756.99 209.741C769.47 216.053 782.994 224.142 790.474 236.394C791.111 237.436 791.679 238.497 792.177 239.572C791.605 225.76 790.214 211.983 787.988 198.344C782.338 163.807 771.282 130.204 755.351 99.0377C739.748 68.5239 719.484 40.4259 695.556 15.8972C671.519 -8.73083 643.723 -29.742 613.461 -46.122C582.74 -62.7543 549.49 -74.6518 515.179 -81.2352C506.364 -82.9226 497.483 -84.2626 488.563 -85.2552ZM794.941 251.026C794.95 251.089 794.955 251.155 794.956 251.223C795.071 268.912 793.876 286.605 791.29 304.109C786.13 339.033 775.511 373.12 759.919 404.784C744.646 435.801 724.661 464.47 700.87 489.552C677.277 514.413 650.051 535.714 620.241 552.61C589.72 569.895 556.566 582.443 522.247 589.727C486.44 597.322 449.387 599.167 412.989 595.285C377.564 591.508 342.756 582.204 310.184 567.775C278.576 553.762 249.09 534.955 223.048 512.219C197.014 489.487 174.399 462.858 156.251 433.443C137.919 403.737 124.197 371.291 115.674 337.438C106.821 302.251 103.674 265.659 106.195 229.472C108.665 194.074 116.685 159.077 129.912 126.143C142.824 93.9769 160.695 63.795 182.631 36.9605C204.464 10.246 230.303 -13.1884 259.046 -32.2814C288.071 -51.5616 320.003 -66.4336 353.475 -76.1388C388.259 -86.2259 424.531 -90.7566 460.729 -89.6891C496.725 -88.6287 532.52 -81.9244 566.445 -69.8268C599.144 -58.1656 630.042 -41.493 657.774 -20.616C685.262 0.0642174 709.65 24.8676 729.842 52.7199C750.313 80.9457 766.463 112.288 777.471 145.374C788.801 179.433 794.603 215.14 794.941 251.026ZM221.471 147.229C218.332 161.029 215.859 174.967 214.02 188.989C226.944 185.711 239.995 182.912 253.078 180.429C292.671 172.907 332.798 168.207 373.054 165.57C375.351 120.228 379.997 74.9452 388.374 30.4006C392.741 7.21928 398.099 -15.9564 406.105 -38.1797C411.312 -52.6342 417.64 -68.0346 428.186 -79.507C430.881 -82.442 434.003 -85.0828 437.439 -86.9537C415.661 -85.4774 394.27 -79.8111 374.438 -70.626C349.263 -58.9656 326.798 -41.9086 307.625 -21.9389C286.487 0.0901025 269.134 25.6223 255.274 52.7873C240.039 82.6531 228.896 114.559 221.471 147.229ZM190.957 313.086C197.944 315.139 204.979 317.022 212.053 318.758C209.152 297.841 207.658 276.73 207.465 255.598C207.457 255.537 207.452 255.474 207.451 255.408C207.33 236.993 208.198 218.593 210.144 200.278C210.426 197.625 210.73 194.975 211.057 192.327C192.147 197.226 173.409 203.119 155.552 211.039C141.931 217.084 127.717 224.421 117.431 235.47C110.476 242.944 105.725 252.767 108.912 263.047C112.711 275.317 124.499 283.929 134.992 290.239C152.252 300.633 171.706 307.431 190.957 313.086ZM213.062 306.901C213.538 311.07 214.069 315.234 214.656 319.39C233.282 323.86 252.161 327.332 271.082 330.222C305.238 335.433 339.706 338.763 374.261 340.547C371.73 302.623 370.86 264.575 371.255 226.625C371.456 207.151 371.977 187.632 372.927 168.121C321.031 171.502 269.075 178.029 218.601 190.425C216.959 190.829 215.318 191.238 213.678 191.655C211.017 212.886 209.807 234.299 209.944 255.704C210.091 272.812 211.117 289.912 213.062 306.901ZM234.723 403.037C225.575 376.74 219.079 349.549 215.033 322.009C218.427 322.808 221.826 323.576 225.225 324.319C274.171 335.026 324.297 340.569 374.428 343.014C376.428 372.141 379.414 401.191 383.565 430.063C387.331 456.234 392.073 482.318 398.693 507.928C403.664 527.138 409.531 546.4 418.305 564.259C423.41 574.647 432.086 588.741 442.988 594.525C426.294 593.688 409.739 590.431 393.928 584.91C369.904 576.525 347.851 563.188 328.443 546.816C307.406 529.065 289.46 507.824 274.425 484.824C257.794 459.389 244.693 431.713 234.723 403.037ZM392.156 466.709C384.483 425.933 379.731 384.586 376.952 343.135C392.343 343.854 407.734 344.284 423.088 344.485C456.945 344.93 490.901 344.213 524.753 342.028C522.81 379.11 519.265 416.105 513.565 452.755C509.688 477.671 504.838 502.535 497.719 526.741C492.7 543.8 486.747 561.32 477.036 576.354C471.797 584.458 464.006 594.198 453.501 594.731C452.986 594.737 452.47 594.74 451.954 594.741C442.56 594.38 435.128 586.369 429.989 579.256C420.359 565.92 414.253 550.017 409.077 534.536C401.684 512.425 396.463 489.601 392.156 466.709ZM508.098 495.884C519.191 445.387 524.614 393.572 527.202 341.867C560.174 339.668 593.045 336.068 625.626 330.781C646 327.478 666.295 323.495 686.302 318.405C685.575 323.925 684.75 329.433 683.827 334.924C678.145 368.695 668.697 401.899 655.066 433.339C642.635 462.028 626.688 489.301 606.792 513.47C588.91 535.199 567.737 554.405 543.485 568.776C520.49 582.397 494.764 591.337 468.128 593.941C466.449 594.104 464.768 594.243 463.086 594.356C464.094 593.794 465.111 593.141 466.136 592.392C477.185 584.312 483.911 570.608 489.183 558.373C497.81 538.381 503.443 517.1 508.098 495.884ZM663.032 321.258C670.926 319.574 678.806 317.762 686.641 315.772C690.408 285.863 691.312 255.586 689.452 225.505C688.676 212.972 687.42 200.463 685.664 188.023C674.121 185.27 662.484 182.907 650.829 180.794C609.656 173.336 567.904 168.991 526.054 166.885C527.94 195.653 528.873 224.484 529.104 253.26C529.104 253.278 529.104 253.296 529.104 253.313C529.103 253.328 529.103 253.343 529.102 253.357C529.1 253.391 529.097 253.424 529.093 253.456C529.225 271.533 529.043 289.62 528.53 307.701C528.229 318.229 527.836 328.775 527.326 339.327C572.918 336.355 618.412 330.793 663.032 321.258ZM672.612 126.51C678.163 145.813 682.362 165.496 685.282 185.368C633.209 172.867 579.398 167.041 525.89 164.421C523.453 128.284 519.499 92.2515 513.532 56.5589C509.443 32.1027 504.384 7.74682 497.344 -16.0466C492.204 -33.4133 486.099 -50.9043 476.799 -66.5255C472.245 -74.1723 466.204 -82.7497 458.009 -87.0884C480.5 -85.86 502.587 -80.1712 523.063 -70.7632C546.565 -59.9665 567.734 -44.4949 586.134 -26.3962C606.321 -6.54022 623.282 16.5559 637.201 41.174C652.403 68.0451 664.088 96.8597 672.612 126.51ZM504.391 21.9455C514.519 68.7186 520.176 116.498 523.35 164.299C516.982 163.999 510.619 163.743 504.264 163.527C486.053 162.909 467.842 162.691 449.62 162.815C449.517 162.818 449.42 162.831 449.328 162.853C424.757 163.057 400.138 163.851 375.565 165.409C377.163 135.573 379.801 105.803 383.67 76.207C387.171 49.4629 391.694 22.7805 398.266 -3.38873C403.053 -22.4443 408.807 -41.6448 417.739 -59.2112C422.844 -69.2672 429.915 -81.4902 440.941 -85.9711C450.022 -89.6589 458.695 -84.9246 464.983 -78.3458C474.983 -67.8726 481.213 -53.8309 486.414 -40.5231C494.298 -20.3278 499.807 0.787316 504.391 21.9455ZM397.739 166.733C414.922 165.926 432.123 165.471 449.326 165.331C474.019 165.152 498.781 165.569 523.511 166.76C524.249 178.183 524.848 189.607 525.333 201.018C526.056 218.329 526.478 235.635 526.624 252.959C526.831 281.769 526.338 310.651 524.884 339.484C508.889 340.494 492.884 341.189 476.902 341.627C443.587 342.541 410.149 342.324 376.789 340.675C375.483 320.636 374.634 300.575 374.134 280.545C373.191 243.062 373.495 205.462 375.43 167.961C382.87 167.491 390.307 167.084 397.739 166.733Z" fill="white" fill-opacity="0.2"/>
</g>
<defs>
<clipPath id="clip0_50_81">
<rect width="706.42" height="687.65" fill="white" transform="translate(261.192 -195) rotate(22.2361)"/>
</clipPath>
</defs>
</svg>
