<svg width="39" height="63" viewBox="0 0 39 63" fill="none" xmlns="http://www.w3.org/2000/svg">
<path d="M20.0209 0.195695C21.4339 2.6187 22.8371 5.04651 24.26 7.46309C29.0147 15.5391 33.7759 23.6103 38.5437 31.6783C38.7812 32.08 38.7547 32.2933 38.3301 32.5387C32.1812 36.0777 26.0404 39.6299 19.9027 43.187C19.5995 43.3634 19.3615 43.3562 19.0616 43.1757C13.0094 39.5133 6.95722 35.8509 0.890097 32.2128C0.358443 31.8931 0.445642 31.6396 0.710606 31.2085C6.90211 21.1734 13.0823 11.1317 19.2624 1.09158C19.4429 0.798237 19.6056 0.493311 19.778 0.19337C19.8579 0.194134 19.9394 0.194915 20.0209 0.195695Z" fill="#FFF509"/>
<path d="M0.520428 35.5919C0.771929 35.5454 0.936512 35.723 1.11644 35.8307C7.0326 39.4005 12.9504 42.9703 18.8566 46.5563C19.2699 46.8064 19.5728 46.8435 20.0089 46.5901C25.9663 43.1275 31.9349 39.6862 37.9003 36.2399C38.1085 36.1196 38.3231 36.0125 38.5656 35.8844C38.6752 36.1772 38.4768 36.3041 38.371 36.4515C32.1493 45.0468 25.9243 53.6388 19.6994 62.2308C19.3177 62.7586 19.2802 62.7583 18.8991 62.2101C12.8398 53.5005 6.78212 44.7892 0.727704 36.078C0.629627 35.9353 0.459592 35.8162 0.520428 35.5919Z" fill="#FFF509"/>
</svg>
